<?xml version="1.0" encoding="UTF-8"?>
<!DOCTYPE svg PUBLIC "-//W3C//DTD SVG 1.1//EN" "http://www.w3.org/Graphics/SVG/1.1/DTD/svg11.dtd">
<svg version="1.1" xmlns="http://www.w3.org/2000/svg" xmlns:xlink="http://www.w3.org/1999/xlink" x="0" y="0" width="200" height="200" viewBox="0, 0, 200, 200">
  <g id="Background">
    <rect x="0" y="0" width="200" height="200" fill="#000000" fill-opacity="0"/>
  </g>
  <g id="Layer_2">
    <path d="M132.015,71.568 L116.926,56.479 C115.307,54.86 113.111,53.95 110.821,53.95 L74.104,53.95 C69.335,53.95 65.469,57.816 65.469,62.584 L65.469,137.416 C65.469,142.184 69.335,146.05 74.104,146.05 L125.91,146.05 C130.679,146.05 134.544,142.184 134.544,137.416 L134.544,77.673 C134.544,75.383 133.635,73.187 132.015,71.568 z M125.212,76.975 L111.519,76.975 L111.519,63.283 L125.212,76.975 z M74.104,137.416 L74.104,62.584 L102.885,62.584 L102.885,81.292 C102.885,83.677 104.818,85.609 107.202,85.609 L125.91,85.609 L125.91,137.416 L74.104,137.416 z M100.007,123.74 C100.007,125.663 97.682,126.626 96.322,125.267 L89.933,118.795 L84.897,118.795 C83.704,118.795 82.738,117.829 82.738,116.637 L82.738,106.563 C82.738,105.371 83.704,104.405 84.897,104.405 L89.933,104.405 L96.322,97.758 C97.682,96.399 100.007,97.362 100.007,99.285 L100.007,123.74 z M107.418,115.262 C109.046,113.59 109.048,110.921 107.418,109.247 C103.434,105.155 109.619,99.13 113.605,103.225 C118.498,108.251 118.5,116.256 113.606,121.285 C109.685,125.312 103.362,119.429 107.418,115.262 z" fill="#000000" id="file-audio"/>
  </g>
</svg>
