<?xml version="1.0" encoding="UTF-8"?>
<!DOCTYPE svg PUBLIC "-//W3C//DTD SVG 1.1//EN" "http://www.w3.org/Graphics/SVG/1.1/DTD/svg11.dtd">
<svg version="1.1" xmlns="http://www.w3.org/2000/svg" xmlns:xlink="http://www.w3.org/1999/xlink" x="0" y="0" width="200" height="200" viewBox="0, 0, 200, 200">
  <g id="Background">
    <rect x="0" y="0" width="200" height="200" fill="#000000" fill-opacity="0"/>
  </g>
  <g id="Layer_2">
    <path d="M117.275,98.561 L117.275,103.598 C117.275,104.785 116.304,105.756 115.117,105.756 L84.897,105.756 C83.709,105.756 82.738,104.785 82.738,103.598 L82.738,98.561 C82.738,97.374 83.709,96.402 84.897,96.402 L115.117,96.402 C116.304,96.402 117.275,97.374 117.275,98.561 z M115.117,111.512 L84.897,111.512 C83.709,111.512 82.738,112.484 82.738,113.671 L82.738,118.708 C82.738,119.895 83.709,120.866 84.897,120.866 L115.117,120.866 C116.304,120.866 117.275,119.895 117.275,118.708 L117.275,113.671 C117.275,112.484 116.304,111.512 115.117,111.512 z M134.544,77.677 L134.544,137.416 C134.544,142.183 130.677,146.05 125.91,146.05 L74.104,146.05 C69.337,146.05 65.469,142.183 65.469,137.416 L65.469,62.584 C65.469,57.817 69.337,53.95 74.104,53.95 L110.818,53.95 C113.102,53.95 115.297,54.867 116.916,56.486 L132.008,71.579 C133.627,73.179 134.544,75.392 134.544,77.677 z M111.519,63.286 L111.519,76.975 L125.208,76.975 L111.519,63.286 z M125.91,137.416 L125.91,85.609 L107.202,85.609 C104.81,85.609 102.885,83.685 102.885,81.292 L102.885,62.584 L74.104,62.584 L74.104,137.416 L125.91,137.416 z" fill="#000000" id="file-alt"/>
  </g>
</svg>
