<?xml version="1.0" encoding="UTF-8"?>
<!DOCTYPE svg PUBLIC "-//W3C//DTD SVG 1.1//EN" "http://www.w3.org/Graphics/SVG/1.1/DTD/svg11.dtd">
<svg version="1.1" xmlns="http://www.w3.org/2000/svg" xmlns:xlink="http://www.w3.org/1999/xlink" x="0" y="0" width="200" height="200" viewBox="0, 0, 200, 200">
  <g id="Background">
    <rect x="0" y="0" width="200" height="200" fill="#000000" fill-opacity="0"/>
  </g>
  <g id="Layer_2">
    <path d="M131.995,71.575 L116.906,56.486 C115.287,54.867 113.093,53.95 110.809,53.95 L74.102,53.95 C69.336,53.968 65.469,57.835 65.469,62.601 L65.469,137.417 C65.469,142.183 69.336,146.05 74.102,146.05 L125.898,146.05 C130.664,146.05 134.531,142.183 134.531,137.417 L134.531,77.69 C134.531,75.406 133.614,73.194 131.995,71.575 z M125.197,76.988 L111.51,76.988 L111.51,63.302 L125.197,76.988 z M74.102,137.417 L74.102,62.601 L102.878,62.601 L102.878,81.305 C102.878,83.697 104.802,85.621 107.194,85.621 L125.898,85.621 L125.898,137.417 L74.102,137.417 z M79.857,128.785 L120.143,128.785 L120.143,105.764 L115.917,101.538 C115.071,100.692 113.704,100.692 112.859,101.538 L97.122,117.274 L90.018,110.17 C89.173,109.325 87.806,109.325 86.961,110.17 L79.857,117.274 L79.857,128.785 z M88.49,85.621 C83.724,85.621 79.857,89.488 79.857,94.254 C79.857,99.02 83.724,102.887 88.49,102.887 C93.256,102.887 97.122,99.02 97.122,94.254 C97.122,89.488 93.256,85.621 88.49,85.621 z" fill="#000000"/>
  </g>
</svg>
