<?xml version="1.0" encoding="UTF-8"?>
<!DOCTYPE svg PUBLIC "-//W3C//DTD SVG 1.1//EN" "http://www.w3.org/Graphics/SVG/1.1/DTD/svg11.dtd">
<svg version="1.1" xmlns="http://www.w3.org/2000/svg" xmlns:xlink="http://www.w3.org/1999/xlink" x="0" y="0" width="200" height="200" viewBox="0, 0, 200, 200">
  <g id="Background">
    <rect x="0" y="0" width="200" height="200" fill="#000000" fill-opacity="0"/>
  </g>
  <g id="Layer_2">
    <path d="M131.995,71.575 L116.906,56.486 C115.287,54.867 113.093,53.95 110.809,53.95 L74.102,53.95 C69.336,53.968 65.469,57.835 65.469,62.601 L65.469,137.417 C65.469,142.183 69.336,146.05 74.102,146.05 L125.898,146.05 C130.664,146.05 134.531,142.183 134.531,137.417 L134.531,77.69 C134.531,75.406 133.614,73.194 131.995,71.575 z M125.197,76.988 L111.51,76.988 L111.51,63.302 L125.197,76.988 z M74.102,137.417 L74.102,62.601 L102.878,62.601 L102.878,81.305 C102.878,83.697 104.802,85.621 107.194,85.621 L125.898,85.621 L125.898,137.417 L74.102,137.417 z M119.1,111.573 C116.906,109.415 110.647,110.009 107.518,110.404 C104.424,108.516 102.356,105.908 100.899,102.077 C101.601,99.182 102.716,94.775 101.87,92.006 C101.115,87.294 95.072,87.761 94.209,90.945 C93.418,93.84 94.137,97.869 95.468,103.012 C93.669,107.311 90.99,113.084 89.101,116.393 C85.504,118.246 80.648,121.105 79.929,124.702 C79.335,127.544 84.605,134.63 93.615,119.091 C97.644,117.76 102.032,116.123 105.917,115.476 C109.316,117.31 113.291,118.533 115.952,118.533 C120.539,118.533 120.988,113.462 119.1,111.573 z M83.472,125.565 C84.389,123.101 87.878,120.26 88.939,119.271 C85.522,124.72 83.472,125.691 83.472,125.565 z M98.148,91.286 C99.478,91.286 99.353,97.059 98.471,98.624 C97.68,96.124 97.698,91.286 98.148,91.286 z M93.759,115.854 C95.504,112.814 96.997,109.199 98.202,106.016 C99.694,108.732 101.601,110.908 103.615,112.4 C99.874,113.174 96.619,114.757 93.759,115.854 z M117.427,114.954 C117.427,114.954 116.528,116.033 110.719,113.552 C117.032,113.084 118.075,114.523 117.427,114.954 z" fill="#000000"/>
  </g>
</svg>
