<?xml version="1.0" encoding="UTF-8"?>
<!DOCTYPE svg PUBLIC "-//W3C//DTD SVG 1.1//EN" "http://www.w3.org/Graphics/SVG/1.1/DTD/svg11.dtd">
<svg version="1.1" xmlns="http://www.w3.org/2000/svg" xmlns:xlink="http://www.w3.org/1999/xlink" x="0" y="0" width="200" height="200" viewBox="0, 0, 200, 200">
  <g id="Background">
    <rect x="0" y="0" width="200" height="200" fill="#000000" fill-opacity="0"/>
  </g>
  <g id="Layer_2">
    <path d="M132.015,71.568 L116.926,56.479 C115.307,54.86 113.111,53.95 110.821,53.95 L74.104,53.95 C69.335,53.95 65.469,57.816 65.469,62.584 L65.469,137.416 C65.469,142.184 69.335,146.05 74.104,146.05 L125.91,146.05 C130.679,146.05 134.544,142.184 134.544,137.416 L134.544,77.673 C134.544,75.383 133.635,73.187 132.015,71.568 z M125.212,76.975 L111.519,76.975 L111.519,63.283 L125.212,76.975 z M74.104,137.416 L74.104,62.584 L102.885,62.584 L102.885,81.292 C102.885,83.677 104.818,85.609 107.202,85.609 L125.91,85.609 L125.91,137.416 L74.104,137.416 z M115.24,99.406 L105.763,108.882 L105.763,102.159 C105.763,100.172 104.152,98.561 102.165,98.561 L83.458,98.561 C81.471,98.561 79.86,100.172 79.86,102.159 L79.86,120.866 C79.86,122.853 81.471,124.464 83.458,124.464 L102.165,124.464 C104.152,124.464 105.763,122.853 105.763,120.866 L105.763,114.143 L115.24,123.619 C117.042,125.421 120.154,124.155 120.154,121.583 L120.154,101.441 C120.154,98.867 117.04,97.606 115.24,99.406 z" fill="#000000" id="file-video"/>
  </g>
</svg>
